<?xml version="1.0" encoding="utf-8"?>
<!DOCTYPE svg PUBLIC "-//W3C//DTD SVG 1.0//EN" "http://www.w3.org/TR/2001/REC-SVG-20010904/DTD/svg10.dtd">
<svg version="1.0" xmlns="http://www.w3.org/2000/svg" width="300px" height="220px" viewBox="0 0 2147 318" preserveAspectRatio="xMidYMid meet">
 <g fill="#5e1b89">
  <path d="M767 316.9 c-45.8 -3 -81.6 -31.1 -95.4 -74.9 -7.8 -24.7 -7.2 -59 1.6 -83.8 12.5 -35.5 38.5 -59.1 75.6 -68.5 7.5 -1.9 11.4 -2.2 28.2 -2.2 16.9 0 20.7 0.3 28.3 2.3 12.4 3.1 22.7 7.6 32.6 14.3 23.7 15.9 39.2 39.5 44.6 68.1 1.7 9.2 2.1 35.9 0.5 38.9 -1 1.9 -3 1.9 -84.9 1.9 -73.9 0 -84 0.2 -85.1 1.5 -2.6 3.1 2.2 22.9 8.1 33.2 7 12.3 20.7 23.2 35.2 27.9 7.1 2.3 9.9 2.7 20.7 2.8 13.5 0.1 19.8 -1.3 29.4 -6.1 6.7 -3.4 17.6 -14 21.1 -20.6 1.6 -2.8 3.3 -5.5 3.9 -5.9 0.6 -0.4 10.4 -0.8 21.7 -0.8 24.8 0 24.5 -0.1 21.1 9.4 -3.6 10 -11.1 21.3 -20.6 31.3 -22.7 23.8 -49.8 33.6 -86.6 31.2z m69.8 -140 c0.4 -5.1 -2.3 -15.2 -6.1 -22.4 -4.5 -8.6 -14.7 -18.4 -23.8 -22.9 -31.3 -15.4 -72.8 -3.1 -86.9 25.8 -5 10.2 -7.7 20.1 -5.9 22.2 1 1.2 9.9 1.4 61.8 1.2 l60.6 -0.3 0.3 -3.6z"/>
  <path d="M1616.5 316.8 c-35.9 -2.3 -65.7 -20.6 -84.5 -51.7 -10.3 -17.3 -15.2 -37 -15.3 -61.6 -0.1 -36.4 9.6 -62.6 31.7 -85.3 13.2 -13.6 29.3 -22.9 48.4 -27.9 12 -3.1 36.2 -4.3 49.3 -2.3 28.3 4.1 54.5 20.3 70.1 43.3 13.1 19.3 20 45.1 18.4 69.2 -0.4 5.5 -1.2 10.5 -1.8 11.2 -0.8 1 -18 1.3 -84.9 1.3 -95.6 0 -86.4 -1 -84.8 9.5 1.5 9.3 5.6 20.8 10 27.5 17.6 27.2 55.5 36.9 84.4 21.7 7.5 -4 16.1 -12.4 20.6 -20.2 l3.5 -6 21.7 -0.3 c25.9 -0.3 25.2 -0.7 20.6 10.7 -6.3 15.8 -21.2 34.1 -35.4 43.8 -20.4 13.8 -42.3 19 -72 17.1z m70.5 -137.3 c1.7 -2 -1 -14.8 -4.9 -23.2 -4.1 -8.7 -14.1 -19 -23.1 -23.8 -29.2 -15.3 -68.6 -6.4 -85.6 19.2 -6 9.1 -11.2 26.1 -8.7 28.6 0.3 0.4 27.7 0.7 60.8 0.7 51.8 0 60.4 -0.2 61.5 -1.5z"/>
  <path d="M1865.3 316.8 c-26.3 -1.7 -49.6 -12.1 -67.9 -30.3 -15.7 -15.6 -26.1 -35.8 -30.4 -59 -1.9 -10.2 -2.4 -29.3 -1.1 -40.4 5.9 -50.7 35.2 -85.5 81.6 -97.3 7.9 -2 11.4 -2.3 29 -2.2 18.4 0 20.8 0.2 29.9 2.7 36 9.7 63 36.6 73.3 73.2 2.2 7.7 2.6 11.7 3 27.8 0.4 14.1 0.2 19.1 -0.7 20.2 -1.1 1.3 -11.8 1.5 -85 1.5 -72.7 0 -83.9 0.2 -85 1.5 -0.9 1.1 -1 3 -0.1 8.2 3.5 20.5 12.6 35.2 27.9 45.3 11.7 7.7 20.8 10.3 36.2 10.4 13.9 0.1 20.3 -1.3 30.2 -6.6 6.9 -3.6 15.8 -12.1 19.4 -18.6 5.1 -8.8 3.2 -8.2 26.4 -8.2 23.9 0 24.2 0.1 22.1 7.3 -2.9 9.9 -12.9 25.4 -22.5 35.1 -22.7 22.7 -49.7 31.9 -86.3 29.4z m70.5 -140.6 c0.7 -9.9 -6 -24.6 -15.7 -34.3 -23.4 -23.3 -66.7 -22.6 -90.6 1.5 -8 8 -12.4 15.7 -15.4 26.5 -3.4 12.3 -9.8 11.2 60.7 10.9 l60.7 -0.3 0.3 -4.3z"/>
  <path d="M163.3 311 c-5.2 -1.2 -9.7 -4.4 -12 -8.6 l-2.3 -3.9 0 -96.2 c0 -95.3 0 -96.2 -2 -96.8 -1.9 -0.6 -2 -1.5 -2 -19.1 0 -18.1 0 -18.5 2 -17.9 1.9 0.6 2 0.2 2 -16.9 l0 -17.6 -13.3 0 c-9 0 -13.7 -0.4 -14.5 -1.2 -0.8 -0.8 -1.2 -5.6 -1.2 -14.9 0 -11.2 0.3 -14.1 1.6 -15.3 1.4 -1.4 6.7 -1.6 43.8 -1.6 39.7 0 42.4 0.1 43.9 1.8 1.4 1.5 1.7 4.1 1.7 14.6 0 7 -0.5 13.6 -1 14.7 -1 1.7 -2.2 1.9 -14.5 1.9 l-13.5 0 0 17.6 c0 17.1 0.1 17.5 2 16.9 2 -0.6 2 -0.2 2 17.9 0 17.6 -0.1 18.5 -2 19.1 -2 0.6 -2 1.5 -2 84.9 0 80.4 0.1 84.4 1.8 85.9 1.7 1.5 7.2 1.7 58.5 1.7 50.5 0 56.7 0.2 58.2 1.6 1.3 1.3 1.5 3.9 1.3 15.7 -0.3 14 -0.3 14.2 -2.8 15.4 -1.9 1 -17 1.3 -67.5 1.2 -35.7 -0.1 -66.4 -0.4 -68.2 -0.9z"/>
  <path d="M458.2 310.8 c-1.7 -1.7 -1.7 -306.9 0 -308.6 1.7 -1.7 41.9 -1.7 43.6 0 0.9 0.9 1.2 32.3 1.2 135.1 0 90.3 0.3 134.5 1 135.8 1 1.8 2.9 1.9 69.1 1.9 45 0 68.7 0.4 70 1 1.8 1 1.9 2.3 1.9 17.3 0 11.4 -0.4 16.7 -1.2 17.5 -1.7 1.7 -183.9 1.7 -185.6 0z"/>
  <path d="M893.2 310.8 c-0.7 -0.7 -1.2 -1.7 -1.2 -2.2 0 -0.6 16.7 -24.5 37 -53.1 20.3 -28.6 37 -52.6 37 -53.4 0 -0.7 -16.5 -24.5 -36.7 -52.9 -20.1 -28.4 -36.8 -52.4 -37 -53.2 -1 -3.6 1.8 -4 24.3 -3.8 l21.9 0.3 27.5 39.2 c15.1 21.6 28.2 40 29.1 40.9 1 1 2.4 1.3 3.5 1 1.1 -0.4 13.6 -17.6 27.9 -38.3 14.3 -20.7 27.1 -38.9 28.3 -40.5 l2.4 -2.8 21.7 0 c21.8 0 24.1 0.4 24.1 3.6 0 0.7 -15.5 23 -34.4 49.7 -42.9 60.4 -40 56 -38.7 58.6 0.6 1.1 17.1 24.5 36.6 52 19.6 27.6 35.8 50.8 36.1 51.6 0.4 0.8 0.1 2.2 -0.6 3 -1 1.2 -5 1.5 -23.4 1.5 l-22.1 0 -28 -40.2 c-26 -37.4 -28.2 -40.3 -30.9 -40.3 -2.7 0 -4.8 2.6 -27.8 35.5 -13.6 19.5 -26.4 37.6 -28.3 40.3 l-3.5 4.7 -21.8 0 c-15.6 0 -22.1 -0.3 -23 -1.2z"/>
  <path d="M1153 310.1 c-0.7 -1.3 -1 -51.1 -1 -154 0 -136.8 0.2 -152.1 1.6 -153.5 1.3 -1.4 5.2 -1.6 27.4 -1.6 19.3 0 26.1 0.3 26.7 1.2 0.4 0.7 23.6 46 51.5 100.8 27.9 54.7 51.4 99.9 52.2 100.5 1.1 0.7 2.2 0.6 3.4 -0.1 0.9 -0.6 24.4 -45.8 52.2 -100.5 27.8 -54.7 50.9 -100 51.3 -100.7 0.6 -0.9 7.7 -1.2 26.7 -1.2 22.2 0 26.1 0.2 27.4 1.6 1.4 1.4 1.6 16.7 1.6 153.5 0 102.9 -0.3 152.7 -1 154 -1 1.8 -2.3 1.9 -22.3 1.9 -15.2 0 -21.6 -0.3 -22.5 -1.2 -0.9 -0.9 -1.2 -26.3 -1.2 -108 l0 -106.8 -2.5 -1.2 c-2.1 -0.9 -2.9 -0.9 -4.1 0.3 -0.8 0.8 -21 39.7 -45 86.5 -24 46.7 -44.1 85.2 -44.8 85.6 -0.6 0.4 -8.6 0.8 -17.8 0.8 -16.7 0 -16.8 0 -18.4 -2.5 -0.9 -1.3 -21.1 -40.1 -44.9 -86.2 -35.4 -68.6 -43.7 -83.9 -45.4 -84.1 -5.4 -0.8 -5.1 -6.4 -5.1 108.2 0 81.3 -0.3 106.5 -1.2 107.4 -0.9 0.9 -7.3 1.2 -22.5 1.2 -20 0 -21.3 -0.1 -22.3 -1.9z"/>
  <path d="M2088.6 310.4 c-19.9 -3.6 -36.3 -14.6 -43.1 -29 -1.4 -3 -3.6 -9 -4.8 -13.2 -2 -7.4 -2.1 -10.1 -2.7 -71.2 -0.3 -34.9 -0.9 -64.1 -1.3 -64.7 -0.6 -1 -5.3 -1.3 -17.6 -1.3 -11.6 0 -17.1 -0.4 -17.9 -1.2 -0.8 -0.8 -1.2 -6.3 -1.2 -18.3 0 -12 0.4 -17.5 1.2 -18.3 0.8 -0.8 6.2 -1.2 17.9 -1.2 12.8 0 16.9 -0.3 17.8 -1.4 0.6 -0.7 2.3 -12.7 3.7 -26.7 1.5 -14 3.1 -26 3.7 -26.7 0.7 -0.9 5.6 -1.2 20.1 -1 l19.1 0.3 0.5 26.5 c0.3 14.6 0.9 27.1 1.3 27.8 0.6 0.9 7.8 1.2 30.2 1.2 28.1 0 29.5 0.1 30.5 1.9 0.6 1.1 1 8.7 1 17.6 0 8.9 -0.4 16.5 -1 17.6 -1 1.8 -2.4 1.9 -30 1.9 -25.4 0 -29.1 0.2 -30.5 1.6 -1.5 1.5 -1.6 7.1 -1.3 60.3 0.3 58.3 0.3 58.6 2.6 64.3 3.3 8.1 8.7 12.3 18.7 14.3 2.2 0.4 11.7 1.1 21 1.4 l17 0.6 0 19 0 19 -23.5 0.2 c-16.7 0.1 -25.8 -0.3 -31.4 -1.3z"/>
  <path d="M30.4 308.5 c-2.1 -3.2 -1.7 -26.2 0.5 -28.8 1.2 -1.5 5.4 -1.7 42.1 -1.7 38.1 0 40.8 0.1 42.3 1.8 1.4 1.5 1.7 4.1 1.7 14.6 0 7 -0.5 13.6 -1 14.7 -1 1.8 -2.6 1.9 -42.5 1.9 l-41.5 0 -1.6 -2.5z"/>
 </g>
 <g fill="#f4512c">
  <path d="M2.6 208.4 c-2.3 -2.3 -2.3 -27.5 0 -29.8 1.2 -1.3 3.9 -1.6 12.8 -1.6 7.4 0 11.8 -0.4 12.9 -1.2 1.5 -1.2 1.7 -6.8 1.9 -66.4 l0.3 -65.1 2.9 -3.7 c3.7 -4.9 10.5 -8 16 -7.3 3.9 0.4 96.2 34.1 97.9 35.6 0.4 0.4 0.6 8.8 0.5 18.7 l-0.3 18.1 -38.5 -14.3 c-21.2 -7.9 -39.4 -14.3 -40.6 -14.3 -1.1 -0.1 -2.8 0.7 -3.7 1.7 -1.5 1.7 -1.7 6.5 -1.7 48.8 0 35.2 0.3 47.3 1.2 48.2 0.8 0.8 5.1 1.2 12.9 1.2 15.2 0 14.9 -0.3 14.9 17.1 0 10.9 -0.2 12.8 -1.8 14.2 -1.7 1.5 -6.2 1.7 -44 1.7 -36.9 0 -42.2 -0.2 -43.6 -1.6z"/>
  <path d="M241.8 208.9 c-1.6 -0.9 -1.8 -2.7 -1.8 -15.2 0 -9.8 0.4 -14.7 1.2 -15.5 0.8 -0.8 5.1 -1.2 12.8 -1.2 6.3 0 12.1 -0.4 12.8 -0.8 1 -0.7 1.2 -11.2 1 -49.2 l-0.3 -48.5 -2.6 -0.9 c-2.1 -0.7 -8.2 1.2 -34.5 10.9 -17.5 6.5 -35.4 13 -39.7 14.6 l-7.7 2.9 0.2 -18.6 0.3 -18.6 48.3 -17.9 c28.3 -10.5 49.8 -17.9 51.8 -17.9 7.1 0 14.9 5.8 17.3 12.9 0.8 2.4 1.1 22.2 1.1 66.6 0 56.8 0.2 63.3 1.6 63.9 0.9 0.3 6.6 0.6 12.9 0.6 9.2 0 11.5 0.3 12.6 1.7 2.2 2.6 2.6 25.6 0.5 28.8 l-1.6 2.5 -42.3 0 c-26.8 0 -42.8 -0.4 -43.9 -1.1z"/>
 </g>
</svg>